<?xml version="1.0" encoding="utf-8"?>
<!-- Generator: Adobe Illustrator 15.1.0, SVG Export Plug-In . SVG Version: 6.00 Build 0)  -->
<!DOCTYPE svg PUBLIC "-//W3C//DTD SVG 1.1//EN" "http://www.w3.org/Graphics/SVG/1.1/DTD/svg11.dtd">
<svg version="1.1" id="Calque_1" xmlns="http://www.w3.org/2000/svg" xmlns:xlink="http://www.w3.org/1999/xlink" x="0px" y="0px"
	 width="563px" height="331px" viewBox="0 0 563 331" enable-background="new 0 0 563 331" xml:space="preserve">
<g>
	<defs>
		<polygon id="SVGID_1_" points="145.329,227.327 206.992,167.616 186.422,146.451 		"/>
	</defs>
	<defs>
		<path id="SVGID_2_" d="M103.91,61.681c-0.079-0.002-0.153-0.006-0.229-0.016c-0.033,0.029-0.063,0.059-0.099,0.086l-61.114,59.467
			l37.707,49.581l31.651-100.551l-7.816-8.565C103.979,61.679,103.946,61.683,103.91,61.681z"/>
	</defs>
	<defs>
		<polygon id="SVGID_3_" points="63.659,203.85 42.469,121.218 80.176,170.799 		"/>
	</defs>
	<defs>
		<polygon id="SVGID_4_" points="186.422,146.451 80.176,170.799 145.329,227.327 		"/>
	</defs>
	<defs>
		<polygon id="SVGID_5_" points="145.329,227.327 63.659,203.85 80.176,170.799 		"/>
	</defs>
	<defs>
		<polygon id="SVGID_6_" points="186.422,146.451 80.176,170.799 104.01,61.683 		"/>
	</defs>
	<defs>
		<polygon id="SVGID_7_" points="206.992,167.616 186.422,146.451 186.406,84.41 		"/>
	</defs>
	<defs>
		<path id="SVGID_8_" d="M103.91,61.681c-0.072-0.001-0.149-0.006-0.222-0.014c-0.051,0.039-0.099,0.079-0.152,0.111l82.885,84.672
			l-0.025-62.04l-82.423-22.729C103.95,61.682,103.931,61.683,103.91,61.681z"/>
	</defs>
	<use xlink:href="#SVGID_1_"  overflow="visible" fill="#066D91"/>
	<use xlink:href="#SVGID_2_"  overflow="visible" fill="#066D91"/>
	<use xlink:href="#SVGID_3_"  overflow="visible" fill="#066D91"/>
	<use xlink:href="#SVGID_4_"  overflow="visible" fill="#066D91"/>
	<use xlink:href="#SVGID_5_"  overflow="visible" fill="#066D91"/>
	<use xlink:href="#SVGID_6_"  overflow="visible" fill="#066D91"/>
	<use xlink:href="#SVGID_7_"  overflow="visible" fill="#066D91"/>
	<use xlink:href="#SVGID_8_"  overflow="visible" fill="#066D91"/>
	<clipPath id="SVGID_9_">
		<use xlink:href="#SVGID_1_"  overflow="visible"/>
	</clipPath>
	<clipPath id="SVGID_10_" clip-path="url(#SVGID_9_)">
		<use xlink:href="#SVGID_2_"  overflow="visible"/>
	</clipPath>
	<clipPath id="SVGID_11_" clip-path="url(#SVGID_10_)">
		<use xlink:href="#SVGID_3_"  overflow="visible"/>
	</clipPath>
	<clipPath id="SVGID_12_" clip-path="url(#SVGID_11_)">
		<use xlink:href="#SVGID_4_"  overflow="visible"/>
	</clipPath>
	<clipPath id="SVGID_13_" clip-path="url(#SVGID_12_)">
		<use xlink:href="#SVGID_5_"  overflow="visible"/>
	</clipPath>
	<clipPath id="SVGID_14_" clip-path="url(#SVGID_13_)">
		<use xlink:href="#SVGID_6_"  overflow="visible"/>
	</clipPath>
	<clipPath id="SVGID_15_" clip-path="url(#SVGID_14_)">
		<use xlink:href="#SVGID_7_"  overflow="visible"/>
	</clipPath>
	<clipPath id="SVGID_16_" clip-path="url(#SVGID_15_)">
		<use xlink:href="#SVGID_8_"  overflow="visible"/>
	</clipPath>
	<rect x="33.452" y="50.704" clip-path="url(#SVGID_16_)" fill="#066D91" width="180.639" height="196.992"/>
</g>
<g>
	<g>
		<polygon fill="#004055" points="145.657,228.52 208.068,168.086 187.248,146.664 		"/>
		<path fill="#046D90" d="M103.828,60.875c-0.033,0.029-62.292,60.234-62.292,60.234L79.7,171.291l32.034-101.769
			C111.735,69.522,103.905,60.885,103.828,60.875z"/>
		<polygon fill="#005571" points="62.999,204.758 41.552,121.125 79.716,171.307 		"/>
		<polygon fill="#046D90" points="187.248,146.664 79.716,171.307 145.657,228.52 		"/>
		<polygon fill="#00445B" points="145.657,228.52 62.999,204.758 79.716,171.307 		"/>
		<polygon fill="#0588B2" points="187.248,146.664 79.716,171.307 103.839,60.869 		"/>
		<polygon fill="#005571" points="208.068,168.086 187.248,146.664 187.233,83.872 		"/>
		<path fill="#06789D" d="M103.84,60.869c-0.052,0.039,83.408,85.794,83.408,85.794l-0.025-62.791
			C187.223,83.872,103.913,60.877,103.84,60.869z"/>
	</g>
	<g>
		<path d="M313.262,187.828c-7.758,7.574-17.342,11.361-28.758,11.361c-11.414,0-21-3.787-28.755-11.361
			c-7.757-7.572-11.636-17.012-11.636-28.316c0-11.305,3.879-20.744,11.636-28.317c7.755-7.573,17.342-11.36,28.755-11.36
			c11.416,0,21,3.787,28.758,11.36c7.754,7.573,11.633,17.012,11.633,28.317C324.895,170.816,321.016,180.256,313.262,187.828z
			 M303.768,139.81c-5.231-5.414-11.654-8.122-19.264-8.122c-7.61,0-14.031,2.708-19.261,8.122
			c-5.232,5.416-7.849,11.982-7.849,19.702s2.615,14.287,7.849,19.701c5.229,5.416,11.65,8.121,19.261,8.121
			c7.608,0,14.031-2.705,19.264-8.121c5.23-5.414,7.849-11.98,7.849-19.701C311.615,151.792,308.998,145.226,303.768,139.81z"/>
		<path d="M345.75,166.811v31.609h-12.293v-58.39h12.293v10.646c1.977-3.584,4.701-6.402,8.178-8.452
			c3.475-2.047,7.225-3.073,11.25-3.073c6.584,0,11.908,2.013,15.969,6.037c4.062,4.025,6.092,9.842,6.092,17.451v35.78h-12.293
			V166.37c0-10.756-4.465-16.134-13.391-16.134c-4.244,0-7.938,1.41-11.086,4.226C347.322,157.28,345.75,161.396,345.75,166.811z"/>
		<path d="M399.639,128.396c-1.535-1.537-2.305-3.365-2.305-5.488c0-2.122,0.77-3.951,2.305-5.488
			c1.537-1.537,3.365-2.305,5.488-2.305c2.12,0,3.95,0.769,5.487,2.305s2.306,3.366,2.306,5.488c0,2.123-0.769,3.951-2.306,5.488
			s-3.367,2.305-5.487,2.305C403.004,130.7,401.176,129.932,399.639,128.396z M411.163,198.42H398.87v-58.39h12.293V198.42z"/>
		<path d="M438.604,149.908v29.634c0,2.782,0.73,4.994,2.193,6.64c1.463,1.646,3.514,2.471,6.146,2.471
			c2.635,0,5.16-1.278,7.574-3.842l5.049,8.67c-4.318,3.881-9.094,5.818-14.324,5.818c-5.231,0-9.694-1.811-13.389-5.434
			c-3.697-3.621-5.543-8.506-5.543-14.652v-29.305h-7.354v-9.878h7.354V121.7h12.293v18.33h15.365v9.878H438.604z"/>
		<path d="M504.676,171.641V140.03h12.293v58.39h-12.293v-10.646c-1.978,3.586-4.703,6.404-8.179,8.451
			c-3.477,2.051-7.227,3.074-11.25,3.074c-6.586,0-11.907-2.012-15.969-6.037c-4.061-4.022-6.092-9.84-6.092-17.451V140.03h12.293
			v32.048c0,10.757,4.463,16.135,13.391,16.135c4.242,0,7.938-1.408,11.084-4.227C503.102,181.172,504.676,177.057,504.676,171.641z
			"/>
	</g>
	
		<radialGradient id="SVGID_17_" cx="405.8186" cy="-156.3384" r="99.8074" gradientTransform="matrix(1 0 0 -1 -275.5293 101.4648)" gradientUnits="userSpaceOnUse">
		<stop  offset="0" style="stop-color:#414042"/>
		<stop  offset="1" style="stop-color:#D1D3D4"/>
	</radialGradient>
	<ellipse opacity="0.1" fill="url(#SVGID_17_)" enable-background="new    " cx="126.449" cy="257.803" rx="70.706" ry="12.479"/>
</g>
</svg>
