<?xml version="1.0" encoding="utf-8"?>
<!-- Generator: Adobe Illustrator 15.1.0, SVG Export Plug-In . SVG Version: 6.00 Build 0)  -->
<!DOCTYPE svg PUBLIC "-//W3C//DTD SVG 1.1//EN" "http://www.w3.org/Graphics/SVG/1.1/DTD/svg11.dtd">
<svg version="1.1" id="Calque_1" xmlns="http://www.w3.org/2000/svg" xmlns:xlink="http://www.w3.org/1999/xlink" x="0px" y="0px"
	 width="563px" height="331px" viewBox="0 0 563 331" enable-background="new 0 0 563 331" xml:space="preserve">
<polygon fill="#066D91" points="146.203,226.035 65.145,203.447 44.178,121.955 104.268,63.051 185.325,85.64 206.293,167.131 "/>
<g>
	<g>
		<polygon fill="#004055" points="145.324,228.52 207.735,168.086 186.915,146.664 		"/>
		<path fill="#046D90" d="M103.495,60.875c-0.033,0.029-62.292,60.234-62.292,60.234l38.164,50.182l32.033-101.769
			C111.402,69.522,103.572,60.885,103.495,60.875z"/>
		<polygon fill="#005571" points="62.666,204.758 41.219,121.125 79.383,171.307 		"/>
		<polygon fill="#046D90" points="186.915,146.664 79.383,171.307 145.324,228.52 		"/>
		<polygon fill="#00445B" points="145.324,228.52 62.666,204.758 79.383,171.307 		"/>
		<polygon fill="#0588B2" points="186.915,146.664 79.383,171.307 103.506,60.869 		"/>
		<polygon fill="#005571" points="207.735,168.086 186.915,146.664 186.9,83.872 		"/>
		<path fill="#06789D" d="M103.507,60.869c-0.052,0.039,83.408,85.794,83.408,85.794l-0.025-62.791
			C186.89,83.872,103.58,60.877,103.507,60.869z"/>
	</g>
	<g>
		<path d="M313.262,187.828c-7.758,7.574-17.342,11.361-28.758,11.361c-11.414,0-21-3.787-28.755-11.361
			c-7.757-7.572-11.637-17.012-11.637-28.316c0-11.305,3.88-20.744,11.637-28.317c7.755-7.573,17.342-11.36,28.755-11.36
			c11.416,0,21,3.787,28.758,11.36c7.754,7.573,11.633,17.012,11.633,28.317C324.895,170.816,321.016,180.256,313.262,187.828z
			 M303.768,139.81c-5.23-5.414-11.654-8.122-19.264-8.122c-7.61,0-14.031,2.708-19.261,8.122c-5.232,5.416-7.85,11.982-7.85,19.702
			s2.615,14.287,7.85,19.701c5.229,5.416,11.649,8.121,19.261,8.121c7.607,0,14.031-2.705,19.264-8.121
			c5.23-5.414,7.85-11.98,7.85-19.701C311.615,151.792,308.998,145.226,303.768,139.81z"/>
		<path d="M345.75,166.811v31.609h-12.293v-58.39h12.293v10.646c1.977-3.584,4.701-6.402,8.178-8.452
			c3.475-2.047,7.225-3.073,11.25-3.073c6.584,0,11.908,2.013,15.969,6.037c4.063,4.025,6.092,9.842,6.092,17.451v35.78h-12.293
			V166.37c0-10.756-4.465-16.134-13.391-16.134c-4.244,0-7.938,1.41-11.086,4.226C347.322,157.28,345.75,161.396,345.75,166.811z"/>
		<path d="M399.639,128.396c-1.535-1.537-2.305-3.365-2.305-5.488c0-2.122,0.77-3.951,2.305-5.488
			c1.537-1.537,3.365-2.305,5.488-2.305c2.119,0,3.949,0.769,5.486,2.305s2.307,3.366,2.307,5.488c0,2.123-0.77,3.951-2.307,5.488
			s-3.367,2.305-5.486,2.305C403.004,130.7,401.176,129.932,399.639,128.396z M411.162,198.42h-12.293v-58.39h12.293V198.42z"/>
		<path d="M438.604,149.908v29.634c0,2.782,0.73,4.994,2.193,6.64c1.463,1.646,3.514,2.471,6.146,2.471
			c2.635,0,5.16-1.277,7.574-3.842l5.049,8.67c-4.318,3.881-9.094,5.818-14.324,5.818s-9.693-1.811-13.389-5.434
			c-3.697-3.621-5.543-8.506-5.543-14.652v-29.305h-7.354v-9.878h7.354V121.7h12.293v18.33h15.365v9.878H438.604z"/>
		<path d="M504.676,171.641V140.03h12.293v58.39h-12.293v-10.646c-1.979,3.586-4.703,6.404-8.18,8.451
			c-3.477,2.051-7.227,3.074-11.25,3.074c-6.586,0-11.906-2.012-15.969-6.037c-4.061-4.021-6.092-9.84-6.092-17.451V140.03h12.293
			v32.048c0,10.757,4.463,16.135,13.391,16.135c4.242,0,7.938-1.408,11.084-4.227C503.102,181.172,504.676,177.057,504.676,171.641z
			"/>
	</g>
	
		<radialGradient id="SVGID_1_" cx="681.3479" cy="538.873" r="99.8077" gradientTransform="matrix(1 0 0 1 -551.0586 -281.0703)" gradientUnits="userSpaceOnUse">
		<stop  offset="0" style="stop-color:#414042"/>
		<stop  offset="1" style="stop-color:#D1D3D4"/>
	</radialGradient>
	<ellipse opacity="0.1" fill="url(#SVGID_1_)" enable-background="new    " cx="126.449" cy="257.803" rx="70.705" ry="12.479"/>
</g>
</svg>
